<?xml version="1.0" encoding="UTF-8" standalone="no"?>
<svg
   xmlns:dc="http://purl.org/dc/elements/1.1/"
   xmlns:cc="http://creativecommons.org/ns#"
   xmlns:rdf="http://www.w3.org/1999/02/22-rdf-syntax-ns#"
   xmlns:svg="http://www.w3.org/2000/svg"
   xmlns="http://www.w3.org/2000/svg"
   viewBox="0 0 1280 720"
   height="720"
   width="1280"
   xml:space="preserve"
   id="svg2"
   version="1.1"><metadata
     id="metadata8"><rdf:RDF><cc:Work
         rdf:about=""><dc:format>image/svg+xml</dc:format><dc:type
           rdf:resource="http://purl.org/dc/dcmitype/StillImage" /></cc:Work></rdf:RDF></metadata><defs
     id="defs6"><clipPath
       id="clipPath20"
       clipPathUnits="userSpaceOnUse"><path
         style="clip-rule:evenodd"
         id="path18"
         d="M 0,0 H 960 V 540 H 0 Z" /></clipPath><clipPath
       id="clipPath52"
       clipPathUnits="userSpaceOnUse"><path
         style="clip-rule:evenodd"
         id="path50"
         d="M 0,0 H 960 V 540 H 0 Z" /></clipPath><clipPath
       id="clipPath60"
       clipPathUnits="userSpaceOnUse"><path
         style="clip-rule:evenodd"
         id="path58"
         d="m 583.67,201.463 h 34.45 v 64.8 h -34.45 z" /></clipPath><clipPath
       id="clipPath72"
       clipPathUnits="userSpaceOnUse"><path
         style="clip-rule:evenodd"
         id="path70"
         d="M 0,0 H 960 V 540 H 0 Z" /></clipPath><clipPath
       id="clipPath80"
       clipPathUnits="userSpaceOnUse"><path
         style="clip-rule:evenodd"
         id="path78"
         d="m 584.521,241.196 h 34.45 v 64.8 h -34.45 z" /></clipPath></defs><g
     transform="matrix(1.3333333,0,0,-1.3333333,0,720)"
     id="g10"><g
       transform="matrix(1,0,0,-1,0,540)"
       id="g12"><g
         id="g14"><g
           clip-path="url(#clipPath20)"
           id="g16"><g
             id="g22"><path
               id="path24"
               style="fill:#ffffff;fill-opacity:1;fill-rule:evenodd;stroke:none"
               d="M 0,0 H 960 V 540 H 0 Z" /></g><g
             id="g26"><path
               id="path28"
               style="fill:#000000;fill-opacity:1;fill-rule:nonzero;stroke:none"
               d="m 820.481,145.64 6.72,1.76 -0.14,-0.499 -4.839,4.982 -0.064,0.099 -0.021,0.115 0.024,0.114 0.067,0.097 0.098,0.063 0.115,0.021 0.115,-0.024 0.096,-0.067 5.198,-5.351 -7.217,-1.891 -0.117,-0.007 -0.11,0.039 -0.088,0.077 -0.051,0.105 -0.007,0.117 0.038,0.111 0.078,0.088 z m -365.501,105.559 372.377,-103.8 -0.161,-0.578 -372.377,103.8 0.161,0.578" /></g><g
             id="g30"><path
               id="path32"
               style="fill:#000000;fill-opacity:1;fill-rule:nonzero;stroke:none"
               d="m 819.009,347.516 6.681,-1.902 -0.129,0.502 -4.944,-4.879 -0.065,-0.097 -0.024,-0.115 0.022,-0.115 0.065,-0.098 0.097,-0.065 0.114,-0.024 0.115,0.022 0.098,0.064 5.31,5.241 -7.175,2.043 -0.117,0.009 -0.112,-0.036 -0.089,-0.076 -0.053,-0.104 -0.01,-0.116 0.036,-0.112 0.076,-0.089 z m -364.035,-96.897 370.873,94.993 -0.149,0.581 -370.873,-94.993 0.149,-0.581" /></g><g
             id="g34"><path
               id="path36"
               style="fill:#000000;fill-opacity:1;fill-rule:nonzero;stroke:none"
               d="m 90.223,244.721 -6.029,3.452 0.005,-0.519 5.971,3.549 0.087,0.078 0.051,0.106 0.006,0.117 -0.039,0.11 -0.079,0.087 -0.105,0.051 -0.117,0.006 -0.11,-0.039 -6.414,-3.812 6.475,-3.706 0.111,-0.038 0.116,0.009 0.105,0.052 0.077,0.088 0.037,0.111 -0.008,0.117 -0.052,0.105 z m 363.173,6.489 -369.353,-2.998 0.005,-0.6 369.353,2.998 -0.005,0.6" /></g><g
             id="g38"><path
               id="path40"
               style="fill:#000000;fill-opacity:1;fill-rule:nonzero;stroke:none"
               d="m 471.226,250.61 380.175,0.938 -0.002,0.6 -380.175,-0.938 0.002,-0.6" /></g><g
             id="g42"><path
               id="path44"
               style="fill:#000000;fill-opacity:1;fill-rule:nonzero;stroke:none"
               d="m 558.219,221.618 0.165,0.011 0.181,0.036 0.178,0.058 0.172,0.079 0.166,0.098 0.162,0.117 0.157,0.135 0.155,0.154 0.291,0.348 0.282,0.414 0.273,0.477 0.263,0.537 0.255,0.596 0.247,0.655 0.239,0.711 0.231,0.766 0.222,0.82 0.215,0.872 0.205,0.921 0.197,0.97 0.187,1.017 0.178,1.062 0.168,1.105 0.157,1.146 0.147,1.186 0.136,1.224 0.125,1.259 0.113,1.294 0.101,1.326 0.089,1.357 0.076,1.386 0.063,1.412 0.049,1.438 0.036,1.461 0.022,1.482 0.007,1.503 -0.006,1.39 -0.019,1.373 -0.031,1.355 -0.042,1.336 -0.054,1.314 -0.066,1.293 -0.076,1.268 -0.087,1.243 -0.098,1.216 -0.107,1.188 -0.118,1.158 -0.127,1.127 -0.136,1.095 -0.146,1.06 -0.154,1.026 -0.163,0.989 -0.171,0.95 -0.179,0.911 -0.187,0.87 -0.195,0.828 -0.202,0.784 -0.209,0.739 -0.215,0.693 -0.223,0.646 -0.23,0.597 -0.236,0.546 -0.243,0.497 -0.251,0.444 -0.26,0.391 -0.269,0.338 -0.282,0.282 -0.276,0.208 -0.361,-0.479 0.259,-0.195 -0.032,0.027 0.255,-0.255 -0.022,0.025 0.251,-0.315 -0.016,0.022 0.247,-0.372 -0.012,0.018 0.242,-0.427 -0.008,0.015 0.236,-0.481 -0.006,0.013 0.231,-0.535 -0.004,0.011 0.225,-0.586 -0.004,0.01 0.22,-0.636 -0.003,0.008 0.213,-0.684 -0.002,0.007 0.207,-0.732 -0.002,0.007 0.2,-0.778 -10e-4,0.007 0.193,-0.822 -10e-4,0.005 0.185,-0.864 -10e-4,0.005 0.179,-0.906 -10e-4,0.004 0.17,-0.946 -10e-4,0.005 0.162,-0.985 v 0.004 l 0.153,-1.021 v 0.004 l 0.145,-1.057 -10e-4,0.004 0.137,-1.091 -10e-4,0.003 0.127,-1.124 -10e-4,0.004 0.118,-1.155 -10e-4,0.003 0.108,-1.185 -10e-4,0.003 0.098,-1.213 v 0.003 l 0.086,-1.24 v 0.003 l 0.076,-1.265 v 0.003 l 0.066,-1.289 -0.001,0.002 0.054,-1.311 v 0.002 l 0.043,-1.332 v 0.002 l 0.03,-1.352 v 0.003 l 0.019,-1.371 v 0.003 l 0.006,-1.388 v 0.003 l -0.007,-1.499 v 0.003 l -0.022,-1.48 v 0.003 l -0.036,-1.458 10e-4,0.003 -0.05,-1.434 v 0.003 l -0.063,-1.41 v 0.003 l -0.075,-1.382 v 0.003 l -0.089,-1.354 v 0.003 l -0.1,-1.323 v 0.004 l -0.113,-1.291 10e-4,0.004 -0.125,-1.256 10e-4,0.003 -0.136,-1.22 v 0.004 l -0.146,-1.182 10e-4,0.004 -0.157,-1.142 v 0.004 l -0.167,-1.101 0.001,0.005 -0.177,-1.057 10e-4,0.004 -0.187,-1.011 10e-4,0.005 -0.195,-0.965 10e-4,0.006 -0.204,-0.916 10e-4,0.007 -0.212,-0.865 10e-4,0.007 -0.22,-0.812 0.002,0.007 -0.228,-0.757 0.002,0.009 -0.235,-0.702 0.003,0.011 -0.242,-0.644 0.005,0.012 -0.25,-0.583 0.007,0.014 -0.256,-0.522 0.009,0.017 -0.262,-0.458 0.013,0.02 -0.267,-0.393 0.018,0.024 -0.273,-0.325 0.019,0.02 -0.138,-0.137 0.016,0.015 -0.139,-0.119 0.019,0.015 -0.14,-0.102 0.023,0.016 -0.141,-0.084 0.027,0.014 -0.142,-0.065 0.031,0.012 -0.143,-0.047 0.036,0.01 -0.145,-0.029 0.038,0.005 -0.145,-0.009 0.039,-0.599" /></g></g></g><g
         id="g46"><g
           clip-path="url(#clipPath52)"
           id="g48"><g
             id="g54"><g
               clip-path="url(#clipPath60)"
               id="g56"><g
                 id="g62"><path
                   id="path64"
                   style="fill:#000000;fill-opacity:1;fill-rule:evenodd;stroke:none"
                   d="m 607.858,214.128 0.611,0.123 0.489,0.369 0.366,0.369 0.122,0.369 0.122,0.492 -0.122,0.614 -0.244,0.615 -0.489,0.738 -0.855,0.615 -0.611,0.246 h -0.61 l -0.733,-0.123 -1.589,-0.738 -1.221,-0.861 -1.1,-0.738 -1.466,-0.368 -0.366,-0.123 -0.489,0.123 -0.366,0.123 -0.489,0.368 -0.244,0.492 v 0.246 l 0.244,0.369 0.489,0.738 0.733,0.984 0.855,0.983 1.099,1.107 2.566,2.459 1.221,1.23 0.978,1.352 0.611,1.476 0.366,1.598 v 1.599 l -0.122,2.582 -0.611,2.705 -0.489,1.721 -0.733,1.722 -0.977,1.475 -1.221,1.476 -1.344,1.107 -1.466,0.983 -1.588,0.492 -1.711,0.246 -2.199,-0.123 -2.076,-0.492 -1.955,-0.984 -1.588,-1.352 -0.611,-0.738 -0.489,-0.984 -0.244,-0.86 -0.244,-0.984 -0.122,-1.352 0.122,-1.476 0.244,-1.353 0.733,-2.09 1.1,-1.967 1.466,-1.845 1.71,-1.598 1.344,-0.861 1.343,-0.615 1.344,-0.491 0.977,-0.246 -0.488,-0.861 -0.611,-1.107 -0.489,-1.352 -0.488,-1.23 -0.245,-1.23 -0.122,-1.229 0.122,-1.23 0.489,-1.106 0.855,-1.107 0.977,-0.861 1.222,-0.492 1.222,-0.246 h 0.366 1.1 l 1.832,0.246 1.955,0.492 z m -6.352,23.486 0.244,-1.476 0.244,-1.476 v -0.614 l -0.122,-1.845 -0.366,-1.229 -0.367,-1.107 -0.611,-1.23 -0.733,-1.106 -0.122,-0.246 -1.344,0.615 -1.343,1.106 -1.1,1.353 -0.733,1.475 -1.099,3.443 -0.489,1.722 -0.244,1.598 v 0.615 l 0.122,1.107 0.366,0.983 0.489,0.738 0.977,0.615 1.1,0.369 1.221,0.123 0.611,-0.123 0.611,-0.369 0.611,-0.492 0.489,-0.615 0.488,-0.86 0.367,-0.861 0.733,-2.213" /></g></g></g></g></g><g
         id="g66"><g
           clip-path="url(#clipPath72)"
           id="g68"><g
             id="g74"><g
               clip-path="url(#clipPath80)"
               id="g76"><g
                 id="g82"><path
                   id="path84"
                   style="fill:#000000;fill-opacity:1;fill-rule:evenodd;stroke:none"
                   d="m 608.709,253.861 0.611,0.123 0.488,0.368 0.367,0.369 0.122,0.369 0.122,0.492 -0.122,0.615 -0.244,0.615 -0.489,0.737 -0.855,0.615 -0.611,0.246 h -0.611 l -0.733,-0.123 -1.588,-0.738 -1.222,-0.86 -1.099,-0.738 -1.466,-0.369 -0.366,-0.123 -0.489,0.123 -0.367,0.123 -0.488,0.369 -0.245,0.492 v 0.246 l 0.245,0.369 0.488,0.737 0.733,0.984 0.855,0.984 1.1,1.106 2.565,2.46 1.222,1.229 0.977,1.353 0.611,1.475 0.367,1.599 v 1.598 l -0.123,2.582 -0.61,2.705 -0.489,1.722 -0.733,1.721 -0.977,1.476 -1.222,1.475 -1.344,1.107 -1.466,0.984 -1.588,0.492 -1.71,0.245 -2.199,-0.123 -2.077,-0.491 -1.954,-0.984 -1.588,-1.353 -0.611,-0.737 -0.489,-0.984 -0.244,-0.861 -0.245,-0.983 -0.122,-1.353 0.122,-1.476 0.245,-1.352 0.733,-2.09 1.099,-1.968 1.466,-1.844 1.71,-1.599 1.344,-0.86 1.344,-0.615 1.344,-0.492 0.977,-0.246 -0.489,-0.861 -0.61,-1.106 -0.489,-1.353 -0.489,-1.229 -0.244,-1.23 -0.122,-1.23 0.122,-1.229 0.489,-1.107 0.855,-1.107 0.977,-0.86 1.222,-0.492 1.221,-0.246 h 0.367 1.099 l 1.833,0.246 1.954,0.492 z m -6.353,23.485 0.245,-1.476 0.244,-1.475 v -0.615 l -0.122,-1.844 -0.367,-1.23 -0.366,-1.106 -0.611,-1.23 -0.733,-1.107 -0.122,-0.246 -1.344,0.615 -1.344,1.107 -1.099,1.352 -0.733,1.476 -1.1,3.443 -0.488,1.721 -0.245,1.599 v 0.614 l 0.123,1.107 0.366,0.984 0.489,0.738 0.977,0.614 1.099,0.369 1.222,0.123 0.611,-0.123 0.611,-0.369 0.611,-0.491 0.488,-0.615 0.489,-0.861 0.366,-0.861 0.733,-2.213" /></g></g></g></g></g></g></g></svg>